<svg width="232" height="64" viewBox="0 0 232 64" fill="none" xmlns="http://www.w3.org/2000/svg">
  <rect width="64" height="64" rx="16" fill="#09090B"/>
  <path d="M16 44V21.5C16 19.6 17.6 18 19.5 18H23L32 31L41 18H44.5C46.4 18 48 19.6 48 21.5V44" stroke="#FAFAFA" stroke-width="6" stroke-linecap="round" stroke-linejoin="round"/>
  <path d="M24 44V30L32 41L40 30V44" stroke="#2DD4BF" stroke-width="5" stroke-linecap="round" stroke-linejoin="round"/>
  <circle cx="48" cy="16" r="5" fill="#FBBF24"/>
  <path d="M88 43V21H94.2L101 32.3L107.8 21H114V43H108.5V29.5L102.5 39H99.5L93.5 29.5V43H88Z" fill="#09090B"/>
  <path d="M124.2 43.4C119.2 43.4 115.8 40.1 115.8 35.3C115.8 30.6 119.2 27.2 123.9 27.2C128.5 27.2 131.6 30.5 131.6 35.1C131.6 35.6 131.6 36.1 131.5 36.5H121.2C121.7 38.2 122.9 39.1 124.6 39.1C126 39.1 127 38.6 127.7 37.6L131.1 40.1C129.6 42.2 127.3 43.4 124.2 43.4ZM121.2 33.5H126.4C126.1 32 125.2 31.1 123.9 31.1C122.5 31.1 121.6 31.9 121.2 33.5Z" fill="#09090B"/>
  <path d="M140.8 49.6C137.8 49.6 135.2 48.8 133.1 47.2L135.1 43.2C136.8 44.5 138.5 45.1 140.4 45.1C143.1 45.1 144.6 43.8 144.6 41.3V40.7C143.5 42 142 42.7 140 42.7C135.9 42.7 133 39.5 133 35C133 30.4 135.9 27.2 140 27.2C142.1 27.2 143.8 28.1 144.9 29.7L145.3 27.6H150V41C150 46.4 146.5 49.6 140.8 49.6ZM141.7 38.2C143.5 38.2 144.8 36.9 144.8 35C144.8 33.1 143.5 31.7 141.7 31.7C139.9 31.7 138.6 33.1 138.6 35C138.6 36.9 139.9 38.2 141.7 38.2Z" fill="#09090B"/>
  <path d="M158.3 43.4C155 43.4 152.8 41.5 152.8 38.7C152.8 35.7 155.1 34 159.1 33.7L162.8 33.4V33.1C162.8 31.8 162 31.1 160.5 31.1C159 31.1 158 31.8 157.6 33.1L153.2 31.7C154.1 28.9 156.8 27.2 160.8 27.2C165.5 27.2 168.2 29.5 168.2 33.5V43H163.3L163 41.4C161.9 42.7 160.3 43.4 158.3 43.4ZM160.1 39.6C161.7 39.6 162.8 38.6 162.8 37.2V36.5L160.4 36.8C158.9 37 158.2 37.5 158.2 38.4C158.2 39.1 158.9 39.6 160.1 39.6Z" fill="#09090B"/>
  <path d="M171.1 43V20H176.6V43H171.1Z" fill="#09090B"/>
  <path d="M185.8 43.3C184 43.3 182.7 42 182.7 40.3C182.7 38.6 184 37.3 185.8 37.3C187.5 37.3 188.8 38.6 188.8 40.3C188.8 42 187.5 43.3 185.8 43.3Z" fill="#2DD4BF"/>
  <path d="M197.8 43.4C193 43.4 189.5 40 189.5 35.3C189.5 30.6 193 27.2 197.8 27.2C202.6 27.2 206.1 30.6 206.1 35.3C206.1 40 202.6 43.4 197.8 43.4ZM197.8 38.8C199.5 38.8 200.6 37.4 200.6 35.3C200.6 33.2 199.5 31.8 197.8 31.8C196.1 31.8 195 33.2 195 35.3C195 37.4 196.1 38.8 197.8 38.8Z" fill="#09090B"/>
</svg>
